<svg width="27" height="27" viewBox="0 0 27 27" fill="none" xmlns="http://www.w3.org/2000/svg">
<circle cx="13.5" cy="13.5" r="13" stroke="black"/>
<g clip-path="url(#clip0_13_7566)">
<path d="M15.3383 18.4646C15.3383 19.9105 15.332 21.3565 15.344 22.8024C15.344 23.0461 15.2712 23.0975 15.048 23.0948C13.8784 23.0805 12.7082 23.077 11.5372 23.0841C11.2994 23.0841 11.2307 23.023 11.2318 22.774C11.2401 19.91 11.2318 17.0438 11.2443 14.1825C11.2443 13.8976 11.1595 13.8414 10.9074 13.8521C10.4453 13.8708 9.98206 13.8489 9.51938 13.8612C9.33179 13.8665 9.25738 13.8221 9.26105 13.6127C9.43239 10.2811 8.55157 10.7642 10.8912 10.7412C11.193 10.7412 11.2354 10.6914 11.2412 10.3792C11.1175 8.00782 11.1437 5.1031 14.0707 4.75179C15.4514 4.60666 16.8442 4.66236 18.2307 4.62166C18.3983 4.61363 18.4617 4.67521 18.4607 4.85247C18.4544 5.77144 18.4523 6.69041 18.4607 7.60939C18.4607 7.80164 18.3931 7.85787 18.2176 7.85627C17.6506 7.85091 17.0831 7.85627 16.5156 7.85627C14.939 7.71328 15.4048 9.55872 15.3629 10.5821C15.3629 10.7578 15.5106 10.7251 15.6186 10.7251C16.4653 10.7251 17.3121 10.7251 18.1589 10.7283C18.4958 10.7283 18.4979 10.7315 18.4565 11.0689C18.3548 11.9006 18.2422 12.7317 18.1526 13.565C18.1264 13.8039 18.0378 13.8665 17.8099 13.8622C17.0685 13.8467 16.326 13.8622 15.584 13.8515C15.3886 13.8515 15.332 13.9051 15.3351 14.1048C15.3482 15.5556 15.333 17.0101 15.3383 18.4646Z" fill="black"/>
</g>
<defs>
<clipPath id="clip0_13_7566">
<rect width="9.23684" height="18.4737" fill="white" transform="translate(9.23682 4.61844)"/>
</clipPath>
</defs>
</svg>
