<svg width="27" height="27" viewBox="0 0 27 27" fill="none" xmlns="http://www.w3.org/2000/svg">
<g clip-path="url(#clip0_13_7578)">
<path d="M20.9587 13.3955C20.9557 14.6385 20.9802 15.6889 20.9132 16.7433C20.8417 17.8681 20.5259 18.895 19.6986 19.7134C18.9831 20.4218 18.0955 20.7567 17.1154 20.8647C15.5624 21.0364 14.0023 20.9187 12.4453 20.9467C11.5014 20.9641 10.5545 20.9763 9.6168 20.8295C7.66933 20.5238 6.40202 19.2247 6.14192 17.2657C6.08274 16.836 6.05236 16.4029 6.05095 15.9692C6.05095 14.1019 6.00905 12.2335 6.09132 10.3668C6.11483 9.83062 6.18535 9.30009 6.36931 8.7925C6.96209 7.15249 8.19414 6.32026 9.88355 6.15157C11.7927 5.96097 13.711 6.06901 15.6258 6.07819C16.425 6.08226 17.2278 6.0736 18.0066 6.30497C19.6342 6.78811 20.6823 8.08512 20.8611 9.84489C20.9873 11.0894 20.95 12.338 20.9587 13.3955ZM13.5117 19.5988C14.636 19.6115 15.7602 19.6166 16.8844 19.5356C18.4578 19.4214 19.3884 18.3767 19.4906 17.1133C19.6807 14.718 19.6633 12.3263 19.5018 9.93662C19.4252 8.80371 18.8002 7.98829 17.6688 7.63665C17.3274 7.52859 16.9722 7.47023 16.6141 7.46337C15.8568 7.45216 15.0989 7.44502 14.3411 7.43126C12.9021 7.40578 11.4626 7.39049 10.0277 7.51535C9.39042 7.5709 8.80122 7.77017 8.31678 8.22578C7.75007 8.75682 7.54515 9.43107 7.48179 10.1665C7.38572 11.2765 7.40412 12.39 7.40309 13.5015C7.40309 14.639 7.37243 15.7786 7.48077 16.913C7.57939 17.9455 7.98003 18.7986 8.98314 19.2573C9.36691 19.4336 9.77675 19.503 10.1948 19.5391C11.2985 19.6339 12.4054 19.5988 13.5117 19.5988Z" fill="black"/>
<path d="M17.3492 13.5102C17.3508 14.0143 17.2526 14.5139 17.0603 14.9801C16.868 15.4464 16.5853 15.8702 16.2285 16.2273C15.8716 16.5844 15.4476 16.8678 14.9808 17.0612C14.5139 17.2546 14.0134 17.3542 13.5079 17.3544C13.0024 17.3553 12.5017 17.2568 12.0344 17.0645C11.5671 16.8722 11.1425 16.5899 10.7847 16.2338C10.427 15.8776 10.1432 15.4546 9.94955 14.9889C9.75594 14.5232 9.65631 14.024 9.65638 13.5199C9.65531 13.0157 9.75383 12.5163 9.94633 12.0501C10.1388 11.5839 10.4215 11.1601 10.7783 10.8029C11.135 10.4456 11.5589 10.162 12.0256 9.96818C12.4922 9.77434 12.9926 9.67409 13.4982 9.67316C14.0037 9.67269 14.5044 9.77159 14.9716 9.96421C15.4388 10.1568 15.8634 10.4394 16.221 10.7957C16.5787 11.1521 16.8624 11.5752 17.056 12.041C17.2495 12.5068 17.3492 13.006 17.3492 13.5102ZM15.9669 13.5265C15.9707 13.2028 15.9101 12.8816 15.7886 12.5814C15.667 12.2813 15.487 12.0082 15.2588 11.7779C15.0307 11.5477 14.759 11.3649 14.4595 11.2402C14.1599 11.1154 13.8386 11.0512 13.514 11.0512C13.1895 11.0484 12.8677 11.1099 12.5672 11.2321C12.2668 11.3542 11.9936 11.5346 11.7635 11.7628C11.5334 11.991 11.351 12.2624 11.2268 12.5614C11.1027 12.8604 11.0392 13.181 11.0402 13.5046C11.0371 13.8282 11.0982 14.1492 11.22 14.4492C11.3418 14.7491 11.5218 15.0221 11.7498 15.2524C11.9778 15.4827 12.2491 15.6657 12.5483 15.791C12.8475 15.9163 13.1686 15.9814 13.4931 15.9824C13.8174 15.984 14.1389 15.9216 14.439 15.7988C14.7391 15.6761 15.0119 15.4954 15.2418 15.2672C15.4717 15.039 15.6541 14.7677 15.7785 14.469C15.9029 14.1703 15.9669 13.85 15.9669 13.5265Z" fill="black"/>
<path d="M17.4626 10.4346C17.2264 10.4327 17.0003 10.3384 16.8331 10.172C16.6658 10.0056 16.5708 9.78035 16.5684 9.54474C16.568 9.42586 16.5911 9.30807 16.6363 9.1981C16.6816 9.08813 16.7482 8.98813 16.8322 8.90384C16.9163 8.81954 17.0162 8.75259 17.1262 8.70682C17.2362 8.66105 17.3542 8.63735 17.4734 8.63708C17.9731 8.64014 18.3901 9.05346 18.3871 9.5427C18.384 10.032 17.9624 10.4371 17.4626 10.4346Z" fill="black"/>
</g>
<circle cx="13.5" cy="13.5" r="13" stroke="black"/>
<defs>
<clipPath id="clip0_13_7578">
<rect width="14.9211" height="14.9211" fill="white" transform="translate(6.03943 6.03949)"/>
</clipPath>
</defs>
</svg>
