<svg width="104" height="31" viewBox="0 0 104 31" fill="none" xmlns="http://www.w3.org/2000/svg">
<path d="M31.3455 23.16C30.2789 23.16 29.2589 23 28.2855 22.68C27.3122 22.3467 26.5455 21.92 25.9855 21.4L26.7255 19.84C27.2589 20.3067 27.9389 20.6933 28.7655 21C29.5922 21.3067 30.4522 21.46 31.3455 21.46C32.1589 21.46 32.8189 21.3667 33.3255 21.18C33.8322 20.9933 34.2055 20.74 34.4455 20.42C34.6855 20.0867 34.8055 19.7133 34.8055 19.3C34.8055 18.82 34.6455 18.4333 34.3255 18.14C34.0189 17.8467 33.6122 17.6133 33.1055 17.44C32.6122 17.2533 32.0655 17.0933 31.4655 16.96C30.8655 16.8267 30.2589 16.6733 29.6455 16.5C29.0455 16.3133 28.4922 16.08 27.9855 15.8C27.4922 15.52 27.0922 15.1467 26.7855 14.68C26.4789 14.2 26.3255 13.5867 26.3255 12.84C26.3255 12.12 26.5122 11.46 26.8855 10.86C27.2722 10.2467 27.8589 9.76 28.6455 9.4C29.4455 9.02667 30.4589 8.84 31.6855 8.84C32.4989 8.84 33.3055 8.94667 34.1055 9.16C34.9055 9.37333 35.5989 9.68 36.1855 10.08L35.5255 11.68C34.9255 11.28 34.2922 10.9933 33.6255 10.82C32.9589 10.6333 32.3122 10.54 31.6855 10.54C30.8989 10.54 30.2522 10.64 29.7455 10.84C29.2389 11.04 28.8655 11.3067 28.6255 11.64C28.3989 11.9733 28.2855 12.3467 28.2855 12.76C28.2855 13.2533 28.4389 13.6467 28.7455 13.94C29.0655 14.2333 29.4722 14.4667 29.9655 14.64C30.4722 14.8133 31.0255 14.9733 31.6255 15.12C32.2255 15.2533 32.8255 15.4067 33.4255 15.58C34.0389 15.7533 34.5922 15.98 35.0855 16.26C35.5922 16.54 35.9989 16.9133 36.3055 17.38C36.6122 17.8467 36.7655 18.4467 36.7655 19.18C36.7655 19.8867 36.5722 20.5467 36.1855 21.16C35.7989 21.76 35.1989 22.2467 34.3855 22.62C33.5855 22.98 32.5722 23.16 31.3455 23.16ZM43.8674 23.12C42.9607 23.12 42.1607 22.9533 41.4674 22.62C40.7874 22.2867 40.2541 21.78 39.8674 21.1C39.4941 20.4067 39.3074 19.54 39.3074 18.5V12.4H41.2274V18.28C41.2274 19.32 41.4741 20.1 41.9674 20.62C42.4741 21.14 43.1807 21.4 44.0874 21.4C44.7541 21.4 45.3341 21.2667 45.8274 21C46.3207 20.72 46.7007 20.32 46.9674 19.8C47.2341 19.2667 47.3674 18.6267 47.3674 17.88V12.4H49.2874V23H47.4674V20.14L47.7674 20.9C47.4207 21.6067 46.9007 22.1533 46.2074 22.54C45.5141 22.9267 44.7341 23.12 43.8674 23.12ZM58.5626 23.12C57.6559 23.12 56.8359 22.92 56.1026 22.52C55.3826 22.1067 54.8092 21.5 54.3826 20.7C53.9692 19.9 53.7626 18.9 53.7626 17.7C53.7626 16.5 53.9759 15.5 54.4026 14.7C54.8426 13.9 55.4226 13.3 56.1426 12.9C56.8759 12.5 57.6826 12.3 58.5626 12.3C59.6026 12.3 60.5226 12.5267 61.3226 12.98C62.1226 13.4333 62.7559 14.0667 63.2226 14.88C63.6892 15.68 63.9226 16.62 63.9226 17.7C63.9226 18.78 63.6892 19.7267 63.2226 20.54C62.7559 21.3533 62.1226 21.9867 61.3226 22.44C60.5226 22.8933 59.6026 23.12 58.5626 23.12ZM52.9426 23V8.16H54.8626V15.22L54.6626 17.68L54.7826 20.14V23H52.9426ZM58.4026 21.44C59.0826 21.44 59.6892 21.2867 60.2226 20.98C60.7692 20.6733 61.1959 20.24 61.5026 19.68C61.8226 19.1067 61.9826 18.4467 61.9826 17.7C61.9826 16.94 61.8226 16.2867 61.5026 15.74C61.1959 15.18 60.7692 14.7467 60.2226 14.44C59.6892 14.1333 59.0826 13.98 58.4026 13.98C57.7359 13.98 57.1292 14.1333 56.5826 14.44C56.0492 14.7467 55.6226 15.18 55.3026 15.74C54.9959 16.2867 54.8426 16.94 54.8426 17.7C54.8426 18.4467 54.9959 19.1067 55.3026 19.68C55.6226 20.24 56.0492 20.6733 56.5826 20.98C57.1292 21.2867 57.7359 21.44 58.4026 21.44ZM79.8354 12.3C80.6887 12.3 81.442 12.4667 82.0954 12.8C82.7487 13.1333 83.2554 13.64 83.6154 14.32C83.9887 15 84.1754 15.86 84.1754 16.9V23H82.2554V17.12C82.2554 16.0933 82.0154 15.32 81.5354 14.8C81.0554 14.28 80.382 14.02 79.5154 14.02C78.8754 14.02 78.3154 14.1533 77.8354 14.42C77.3554 14.6867 76.982 15.08 76.7154 15.6C76.462 16.12 76.3354 16.7667 76.3354 17.54V23H74.4154V17.12C74.4154 16.0933 74.1754 15.32 73.6954 14.8C73.2287 14.28 72.5554 14.02 71.6754 14.02C71.0487 14.02 70.4954 14.1533 70.0154 14.42C69.5354 14.6867 69.162 15.08 68.8954 15.6C68.6287 16.12 68.4954 16.7667 68.4954 17.54V23H66.5754V12.4H68.4154V15.22L68.1154 14.5C68.4487 13.8067 68.962 13.2667 69.6554 12.88C70.3487 12.4933 71.1554 12.3 72.0754 12.3C73.0887 12.3 73.962 12.5533 74.6954 13.06C75.4287 13.5533 75.9087 14.3067 76.1354 15.32L75.3554 15C75.6754 14.1867 76.2354 13.5333 77.0354 13.04C77.8354 12.5467 78.7687 12.3 79.8354 12.3ZM87.7082 23V12.4H89.6282V23H87.7082ZM88.6682 10.36C88.2949 10.36 87.9815 10.24 87.7282 10C87.4882 9.76 87.3682 9.46667 87.3682 9.12C87.3682 8.76 87.4882 8.46 87.7282 8.22C87.9815 7.98 88.2949 7.86 88.6682 7.86C89.0415 7.86 89.3482 7.98 89.5882 8.22C89.8415 8.44667 89.9682 8.73333 89.9682 9.08C89.9682 9.44 89.8482 9.74667 89.6082 10C89.3682 10.24 89.0549 10.36 88.6682 10.36ZM96.9341 23.12C95.8675 23.12 95.0408 22.8333 94.4541 22.26C93.8675 21.6867 93.5741 20.8667 93.5741 19.8V10.08H95.4941V19.72C95.4941 20.2933 95.6341 20.7333 95.9141 21.04C96.2075 21.3467 96.6208 21.5 97.1541 21.5C97.7541 21.5 98.2541 21.3333 98.6541 21L99.2541 22.38C98.9608 22.6333 98.6075 22.82 98.1941 22.94C97.7941 23.06 97.3741 23.12 96.9341 23.12ZM91.7741 13.98V12.4H98.5341V13.98H91.7741Z" fill="black"/>
<path d="M9.08935 24.5224L18.7629 7.90589L0.0067722 12.1358L3.53211 16.9578L14.6996 10.8854L5.55046 19.7103L9.08935 24.5224Z" fill="black"/>
</svg>
