<svg width="27" height="27" viewBox="0 0 27 27" fill="none" xmlns="http://www.w3.org/2000/svg">
<circle cx="13.5" cy="13.5" r="13" stroke="black"/>
<path d="M10.2997 17.8068C8.49781 17.5969 7.10185 16.6036 6.82805 15.3625C7.35676 15.4104 7.88143 15.4377 8.45015 15.292C8.10982 15.1892 7.81624 15.1102 7.54559 14.9746C6.2908 14.3449 5.61462 13.3604 5.48065 12.0438C5.45502 11.7919 5.46401 11.7889 5.71083 11.8981C6.04464 12.041 6.39762 12.1411 6.76016 12.1957C6.86582 12.213 6.97462 12.2117 7.1014 12.2205C7.05105 12.1143 6.96967 12.0853 6.90898 12.0391C6.24049 11.532 5.77706 10.8273 5.59513 10.0412C5.41319 9.25505 5.52362 8.43449 5.9082 7.71486C5.99812 7.54692 6.04308 7.55532 6.17031 7.69092C7.81699 9.47606 9.87923 10.5956 12.357 11.0496C12.7243 11.1184 13.096 11.1642 13.4698 11.1869C13.8519 11.2079 13.7746 11.2179 13.7314 10.927C13.6037 10.0693 13.7674 9.2674 14.2642 8.53605C15.5509 6.64134 18.2871 6.31597 20.044 7.8492C20.1708 7.95962 20.2783 7.98313 20.4406 7.94786C21.1264 7.79776 21.7869 7.56073 22.4039 7.24338C22.4489 7.22029 22.4938 7.19888 22.59 7.1527C22.2969 7.97095 21.7772 8.56712 21.066 9.04573C21.2948 9.06504 21.5115 9.00375 21.7282 8.96176C21.9473 8.91646 22.1637 8.86041 22.3765 8.79383C22.595 8.72833 22.809 8.65024 23.0414 8.57258C23.0351 8.6704 22.9672 8.7212 22.9227 8.7783C22.4929 9.33577 21.9751 9.82921 21.387 10.2418C21.2719 10.322 21.2359 10.4056 21.2336 10.5382C21.1613 14.572 19.3661 17.6939 15.5689 19.7041C13.9229 20.5748 12.1071 20.8716 10.2188 20.8271C8.35844 20.7797 6.63608 20.3011 5.03601 19.4228C4.96677 19.3846 4.90113 19.3388 4.77075 19.2607C6.83794 19.4316 8.64662 18.9656 10.2997 17.8068Z" fill="black"/>
</svg>
