<svg width="17" height="28" viewBox="0 0 17 28" fill="none" xmlns="http://www.w3.org/2000/svg">
<path id="Vector" d="M13.7308 0H3.26923C1.46462 0 0 1.42545 0 3.18182V24.8182C0 26.5745 1.46462 28 3.26923 28H13.7308C15.5354 28 17 26.5745 17 24.8182V3.18182C17 1.42545 15.5354 0 13.7308 0ZM8.5 26.7273C7.41462 26.7273 6.53846 25.8745 6.53846 24.8182C6.53846 23.7618 7.41462 22.9091 8.5 22.9091C9.58538 22.9091 10.4615 23.7618 10.4615 24.8182C10.4615 25.8745 9.58538 26.7273 8.5 26.7273ZM14.3846 21.6364H2.61538V3.81818H14.3846V21.6364Z" fill="black"/>
</svg>
