<svg width="27" height="27" viewBox="0 0 27 27" fill="none" xmlns="http://www.w3.org/2000/svg">
<circle cx="13.5" cy="13.5" r="13" stroke="black"/>
<path d="M13.8077 20.0062H19.4454C20.8349 20.0062 22.1635 18.7853 22.3078 17.3828C22.3468 17.0033 22.3355 16.6238 22.3355 16.2443C22.3377 14.4827 22.3377 12.721 22.3355 10.959C22.3355 9.36679 21.24 8.0917 19.6934 7.87972C19.5869 7.86754 19.4798 7.86247 19.3727 7.86454H8.14979C6.61332 7.86454 5.24786 9.2318 5.24412 10.7866C5.23878 12.8916 5.23878 14.9968 5.24412 17.1025C5.2484 18.6264 6.61225 20.0018 8.11238 20.004C10.0121 20.008 11.9105 20.0087 13.8077 20.0062ZM11.9811 13.9343H11.9837C11.9837 13.2392 11.9837 12.5442 11.9837 11.8487C11.9837 11.5679 12.0078 11.5554 12.2483 11.686C13.5908 12.4125 14.9329 13.139 16.2746 13.8654C16.3324 13.8969 16.435 13.9044 16.4173 13.995C16.4088 14.0405 16.3324 14.0796 16.2794 14.1072C14.9455 14.8109 13.6109 15.5128 12.2755 16.2128C12.0367 16.3375 11.9827 16.3007 11.9816 16.0204C11.9795 15.3248 11.9811 14.6298 11.9811 13.9343Z" fill="black"/>
</svg>
