<svg width="56" height="56" viewBox="0 0 56 56" fill="none" xmlns="http://www.w3.org/2000/svg">
<circle cx="28.2346" cy="27.7346" r="27.2346" stroke="black"/>
<g clip-path="url(#clip0_140_139)">
<path d="M32.0115 37.9337C32.0115 40.9043 31.9986 43.8748 32.0234 46.8454C32.0234 47.346 31.8738 47.4516 31.4152 47.4461C29.0125 47.4167 26.6083 47.4094 24.2027 47.4241C23.714 47.4241 23.573 47.2987 23.5751 46.7871C23.5923 40.9032 23.5751 35.0149 23.601 29.1365C23.601 28.5512 23.4266 28.4357 22.9088 28.4577C21.9593 28.4962 21.0077 28.4511 20.0572 28.4764C19.6718 28.4874 19.5189 28.3961 19.5265 27.9659C19.8785 21.1215 18.0689 22.1139 22.8754 22.0666C23.4955 22.0666 23.5827 21.9643 23.5945 21.3229C23.3404 16.4512 23.3943 10.4837 29.4075 9.76192C32.2441 9.46377 35.1054 9.57819 37.9538 9.49457C38.2982 9.47807 38.4285 9.60459 38.4263 9.96876C38.4134 11.8567 38.4091 13.7447 38.4263 15.6326C38.4263 16.0276 38.2875 16.1431 37.9268 16.1398C36.7621 16.1288 35.5962 16.1398 34.4304 16.1398C31.1913 15.846 32.1483 19.6373 32.0621 21.7398C32.0621 22.1007 32.3657 22.0336 32.5875 22.0336C34.3271 22.0336 36.0667 22.0336 37.8063 22.0402C38.4984 22.0402 38.5028 22.0468 38.4177 22.7399C38.2089 24.4485 37.9774 26.1561 37.7934 27.868C37.7395 28.3587 37.5576 28.4874 37.0893 28.4786C35.5661 28.4467 34.0407 28.4786 32.5164 28.4566C32.1149 28.4566 31.9986 28.5666 32.0051 28.977C32.032 31.9574 32.0008 34.9456 32.0115 37.9337Z" fill="black"/>
</g>
<defs>
<clipPath id="clip0_140_139">
<rect width="18.9763" height="37.9526" fill="white" transform="translate(19.4761 9.48828)"/>
</clipPath>
</defs>
</svg>
