<svg width="57" height="56" viewBox="0 0 57 56" fill="none" xmlns="http://www.w3.org/2000/svg">
<g clip-path="url(#clip0_140_133)">
<path d="M43.9604 27.5201C43.9541 30.0738 44.0045 32.2316 43.867 34.3979C43.72 36.7086 43.0712 38.8183 41.3715 40.4998C39.9018 41.9551 38.0782 42.643 36.0646 42.865C32.8742 43.2178 29.6691 42.9759 26.4702 43.0335C24.5312 43.0691 22.5859 43.0943 20.6594 42.7927C16.6585 42.1645 14.0549 39.4957 13.5206 35.4711C13.399 34.5883 13.3366 33.6985 13.3337 32.8075C13.3337 28.9713 13.2476 25.133 13.4166 21.2978C13.4649 20.1964 13.6098 19.1065 13.9877 18.0637C15.2055 14.6944 17.7367 12.9847 21.2074 12.6381C25.1296 12.2465 29.0707 12.4685 33.0044 12.4873C34.6463 12.4957 36.2956 12.4779 37.8955 12.9533C41.2393 13.9458 43.3925 16.6104 43.7599 20.2257C44.0192 22.7825 43.9426 25.3476 43.9604 27.5201ZM28.6612 40.2642C30.9709 40.2904 33.2805 40.3009 35.5901 40.1344C38.8225 39.8999 40.7343 37.7535 40.9443 35.158C41.3348 30.2371 41.2991 25.3235 40.9673 20.4142C40.8099 18.0867 39.5259 16.4115 37.2016 15.6891C36.5002 15.4671 35.7705 15.3472 35.0348 15.3331C33.4789 15.31 31.922 15.2954 30.3651 15.2671C27.4088 15.2148 24.4514 15.1834 21.5035 15.4399C20.1943 15.554 18.9839 15.9634 17.9886 16.8994C16.8244 17.9904 16.4034 19.3755 16.2732 20.8864C16.0758 23.1667 16.1136 25.4544 16.1115 27.7379C16.1115 30.0748 16.0486 32.4159 16.2711 34.7465C16.4737 36.8678 17.2968 38.6204 19.3576 39.5627C20.146 39.925 20.988 40.0674 21.8468 40.1417C24.1144 40.3365 26.3883 40.2642 28.6612 40.2642Z" fill="black"/>
<path d="M36.5451 27.7559C36.5485 28.7917 36.3468 29.8179 35.9517 30.7758C35.5566 31.7337 34.9759 32.6044 34.2428 33.338C33.5097 34.0717 32.6386 34.6538 31.6795 35.0512C30.7204 35.4485 29.6921 35.6531 28.6536 35.6534C27.6151 35.6553 26.5864 35.453 25.6264 35.058C24.6664 34.6629 23.794 34.0829 23.059 33.3512C22.3241 32.6195 21.741 31.7504 21.3433 30.7937C20.9455 29.837 20.7408 28.8115 20.741 27.7758C20.7388 26.74 20.9412 25.7139 21.3367 24.7562C21.7321 23.7984 22.3129 22.9278 23.0458 22.1939C23.7788 21.46 24.6495 20.8774 25.6082 20.4791C26.567 20.0809 27.595 19.875 28.6336 19.8731C29.6722 19.8721 30.7008 20.0753 31.6607 20.471C32.6205 20.8667 33.4927 21.4472 34.2275 22.1793C34.9622 22.9114 35.5451 23.7807 35.9428 24.7376C36.3405 25.6944 36.5451 26.7201 36.5451 27.7559ZM33.7054 27.7894C33.7133 27.1244 33.5888 26.4645 33.3391 25.8479C33.0894 25.2312 32.7195 24.6701 32.2507 24.1971C31.782 23.7241 31.2238 23.3486 30.6085 23.0923C29.9932 22.836 29.333 22.7041 28.6662 22.7041C27.9996 22.6985 27.3384 22.8247 26.7211 23.0757C26.1038 23.3266 25.5425 23.6972 25.0698 24.166C24.5971 24.6348 24.2224 25.1925 23.9673 25.8067C23.7123 26.4209 23.582 27.0796 23.5839 27.7444C23.5776 28.4092 23.7031 29.0687 23.9533 29.6849C24.2034 30.3012 24.5733 30.862 25.0417 31.3351C25.51 31.8082 26.0676 32.1843 26.6822 32.4417C27.2969 32.6991 27.9565 32.8327 28.6231 32.8349C29.2895 32.8381 29.9499 32.7099 30.5664 32.4577C31.183 32.2056 31.7435 31.8344 32.2157 31.3656C32.688 30.8967 33.0627 30.3394 33.3183 29.7257C33.574 29.112 33.7055 28.454 33.7054 27.7894Z" fill="black"/>
<path d="M36.7781 21.4369C36.2928 21.4331 35.8283 21.2394 35.4847 20.8975C35.1411 20.5556 34.9459 20.0929 34.9409 19.6088C34.9401 19.3646 34.9876 19.1226 35.0806 18.8967C35.1736 18.6708 35.3103 18.4653 35.483 18.2922C35.6557 18.119 35.8609 17.9814 36.0869 17.8874C36.3129 17.7934 36.5553 17.7447 36.8002 17.7441C37.8269 17.7504 38.6836 18.5995 38.6773 19.6047C38.671 20.6098 37.8049 21.4421 36.7781 21.4369Z" fill="black"/>
</g>
<circle cx="28.6374" cy="27.7346" r="27.2346" stroke="black"/>
<defs>
<clipPath id="clip0_140_133">
<rect width="30.654" height="30.654" fill="white" transform="translate(13.3103 12.4077)"/>
</clipPath>
</defs>
</svg>
